<?xml version="1.0" encoding="utf-8"?>
<!-- Generator: Adobe Illustrator 18.1.1, SVG Export Plug-In . SVG Version: 6.00 Build 0)  -->
<svg version="1.1" id="Layer_1" xmlns="http://www.w3.org/2000/svg" xmlns:xlink="http://www.w3.org/1999/xlink" x="0px" y="0px"
	 viewBox="0 0 360 60" enable-background="new 0 0 360 60" xml:space="preserve">
<path fill="#797979" d="M36.7,36.1l-0.6,0.6C36,36.9,35.7,37,35.5,37c-0.2,0-0.4-0.1-0.6-0.3l-4-3.9c-0.8,0.5-1.7,0.7-2.7,0.7
	c-2.8-0.1-5.2-2.4-5.2-5.3s2.3-5.2,5.2-5.2s5.2,2.3,5.2,5.2c0,1-0.3,1.9-0.7,2.7l4,3.9C37.1,35.2,37.1,35.7,36.7,36.1z M28.2,31.7
	c1.9,0,3.5-1.5,3.5-3.4c0-1.9-1.6-3.4-3.5-3.4s-3.5,1.5-3.5,3.4C24.8,30.2,26.3,31.7,28.2,31.7z"/>
<g>
	<path fill="#FFFFFF" d="M85.2,28.7c0-0.1,0.1-0.1,0.1-0.2c0.4-0.7,0.8-1.5,1.3-2.3c-1.4-1.9-3.4-3.4-6.7-3.4v2.9
		C82.7,25.7,84.1,26.9,85.2,28.7z"/>
	<path fill="#FFFFFF" d="M95,25.7v2.1c0,0.3,0.1,0.5,0.4,0.6c0.1,0.1,0.2,0.1,0.3,0.1c0.1,0,0.3-0.1,0.4-0.2l3.8-3.6
		c0.1-0.1,0.2-0.3,0.2-0.6c0-0.2-0.1-0.4-0.2-0.6L96,20.2c-0.1-0.1-0.3-0.2-0.4-0.2c-0.1,0-0.2,0-0.3,0.1c-0.2,0.1-0.4,0.4-0.4,0.6
		v2.1c-5.1,0-6.9,3.4-8.6,6.4c-1.5,2.8-2.8,5-6.4,5v2.9c5.1,0,6.9-3.4,8.6-6.4C90.1,27.9,91.3,25.7,95,25.7z"/>
	<path fill="#FFFFFF" d="M96,31.6c-0.1-0.1-0.2-0.2-0.4-0.2c-0.1,0-0.2,0-0.3,0.1c-0.2,0.1-0.4,0.4-0.4,0.6v2.1
		c-2.7,0-4.1-1.2-5.2-3c0,0.1-0.1,0.1-0.1,0.2c-0.4,0.7-0.8,1.5-1.3,2.3c1.4,1.9,3.4,3.4,6.7,3.4v2.1c0,0.3,0.1,0.5,0.4,0.6
		c0.1,0.1,0.2,0.1,0.3,0.1c0.1,0,0.3-0.1,0.4-0.2l3.8-3.6c0.1-0.1,0.2-0.3,0.2-0.6s-0.1-0.4-0.2-0.6L96,31.6z"/>
</g>
<path fill="#FFFFFF" d="M141.5,24.3l5.7,5.7l-5.7,5.7c-0.6,0.6-0.6,1.6,0,2.3l0.6,0.6c0.6,0.6,1.6,0.6,2.3,0l5.7-5.7l5.7,5.7
	c0.6,0.6,1.6,0.6,2.3,0l0.6-0.6c0.6-0.6,0.6-1.6,0-2.3l-5.7-5.7l5.7-5.7c0.6-0.6,0.6-1.6,0-2.3l-0.6-0.6c-0.6-0.6-1.6-0.6-2.3,0
	l-5.7,5.7l-5.7-5.7c-0.6-0.6-1.6-0.6-2.3,0l-0.6,0.6C140.8,22.7,140.8,23.7,141.5,24.3z"/>
<path fill="#B5B6B7" d="M216.2,25.7l-3.4-3.4l3.4-3.4c0.4-0.4,0.4-1,0-1.4l-1.4-1.4c-0.4-0.4-1-0.4-1.4,0l-3.5,3.4l-3.4-3.4
	c-0.4-0.4-1-0.4-1.4,0l-1.4,1.4c-0.4,0.4-0.4,1,0,1.4l3.4,3.4l-3.4,3.4c-0.4,0.4-0.4,1,0,1.4l1.4,1.4c0.4,0.4,1,0.4,1.4,0l3.4-3.4
	l3.4,3.4c0.4,0.4,1,0.4,1.4,0l1.4-1.4C216.5,26.6,216.5,26.1,216.2,25.7z"/>
<path fill="#AD2829" d="M216.1,38.6l-3.5-3.5l3.5-3.4c0.5-0.5,0.5-1,0-1.4l-1.4-1.4c-0.5-0.5-1-0.5-1.4,0l-3.5,3.4l-3.4-3.4
	c-0.5-0.5-1-0.5-1.4,0l-1.4,1.4c-0.5,0.5-0.5,1,0,1.4l3.5,3.5l-3.5,3.4c-0.5,0.5-0.5,1,0,1.4l1.4,1.4c0.5,0.5,1,0.5,1.4,0l3.5-3.5
	l3.4,3.5c0.5,0.5,1,0.5,1.4,0l1.4-1.4C216.5,39.6,216.5,39,216.1,38.6z"/>
<path fill="#FFFFFF" d="M285.4,20.4c-1.1,0.5-2.3,0.8-3.6,1c1.3-0.8,2.3-2,2.8-3.5c-1.2,0.7-2.6,1.3-4,1.6c-1.2-1.2-2.8-2-4.6-2
	c-3.6,0-6.4,2.8-6.4,6.3c0,0.5,0.1,1,0.2,1.4c-5.2-0.3-9.9-2.8-13-6.6c-0.6,0.9-0.8,2-0.8,3.2c0,2.2,1.1,4.1,2.8,5.3
	c-1.1-0.1-2-0.3-2.9-0.8v0.1c0,3.1,2.2,5.6,5.1,6.2c-0.6,0.2-1.1,0.2-1.7,0.2c-0.4,0-0.8-0.1-1.2-0.1c0.8,2.5,3.2,4.3,5.9,4.4
	c-2.2,1.7-4.9,2.7-7.9,2.7c-0.5,0-1-0.1-1.5-0.1c2.8,1.8,6.1,2.8,9.7,2.8c11.6,0,18-9.6,18-18c0-0.3,0-0.6,0-0.8
	C283.5,22.8,284.6,21.6,285.4,20.4z"/>
<path id="White_2_" fill="#FFFFFF" d="M341.1,16.2h-22.2c-0.8,0-1.4,0.6-1.4,1.4v22.2c0,0.8,0.6,1.4,1.4,1.4h11.9v-9.7h-3.3v-3.8
	h3.3V25c0-3.2,1.9-5,4.8-5c1.4,0,2.5,0.1,2.9,0.2v3.4h-2c-1.5,0-1.9,0.7-1.9,1.8v2.4h3.7l-0.5,3.8h-3.2v9.7h6.4
	c0.8,0,1.4-0.6,1.4-1.4V17.6C342.5,16.8,341.9,16.2,341.1,16.2z"/>
</svg>
